<svg width="759" height="535" viewBox="0 0 759 535" fill="none" xmlns="http://www.w3.org/2000/svg">
<rect width="517" height="327" rx="20" fill="#C4EBEB"/>
<rect x="46" y="36" width="117" height="263" rx="10" fill="#AACEAF" fill-opacity="0.63"/>
<rect x="200" y="36" width="117" height="263" rx="10" fill="#AACEAF" fill-opacity="0.63"/>
<rect x="354" y="36" width="117" height="263" rx="10" fill="#AACEAF" fill-opacity="0.63"/>
<path d="M46 46C46 40.4772 50.4772 36 56 36H153C158.523 36 163 40.4772 163 46V60H46V46Z" fill="#EDCB94" fill-opacity="0.82"/>
<path d="M200 46C200 40.4772 204.477 36 210 36H307C312.523 36 317 40.4772 317 46V60H200V46Z" fill="#EDCB94" fill-opacity="0.82"/>
<path d="M354 46C354 40.4772 358.477 36 364 36H461C466.523 36 471 40.4772 471 46V60H354V46Z" fill="#EDCB94" fill-opacity="0.82"/>
<rect x="242" y="208" width="517" height="327" rx="20" fill="#E0D8EA"/>
<rect x="289" y="262" width="107" height="31" rx="8" fill="#72A4C5" fill-opacity="0.63"/>
<rect x="289" y="262" width="107" height="31" rx="8" fill="#72A4C5" fill-opacity="0.63"/>
<rect x="289" y="262" width="107" height="31" rx="8" fill="#EFF3F5" fill-opacity="0.19"/>
<rect x="289" y="309" width="107" height="31" rx="8" fill="#72A4C5" fill-opacity="0.63"/>
<rect x="289" y="309" width="107" height="31" rx="8" fill="#72A4C5" fill-opacity="0.63"/>
<rect x="289" y="309" width="107" height="31" rx="8" fill="#EFF3F5" fill-opacity="0.19"/>
<rect x="289" y="356" width="107" height="31" rx="8" fill="#72A4C5" fill-opacity="0.63"/>
<rect x="289" y="356" width="107" height="31" rx="8" fill="#72A4C5" fill-opacity="0.63"/>
<rect x="289" y="356" width="107" height="31" rx="8" fill="#EFF3F5" fill-opacity="0.19"/>
<rect x="289" y="403" width="107" height="31" rx="8" fill="#72A4C5" fill-opacity="0.63"/>
<rect x="289" y="403" width="107" height="31" rx="8" fill="#72A4C5" fill-opacity="0.63"/>
<rect x="289" y="403" width="107" height="31" rx="8" fill="#EFF3F5" fill-opacity="0.19"/>
<rect x="289" y="450" width="107" height="31" rx="8" fill="#72A4C5" fill-opacity="0.63"/>
<rect x="289" y="450" width="107" height="31" rx="8" fill="#72A4C5" fill-opacity="0.63"/>
<rect x="289" y="450" width="107" height="31" rx="8" fill="#EFF3F5" fill-opacity="0.19"/>
<rect x="433" y="245" width="292" height="252" fill="#D5EEBB" fill-opacity="0.88"/>
<rect x="433" y="245" width="292" height="39" fill="#F0BB63" fill-opacity="0.49"/>
</svg>
